<svg width="512" height="512" viewBox="0 0 512 512" fill="none" xmlns="http://www.w3.org/2000/svg">
<g clip-path="url(#clip0_313_396)">
<path d="M256 0C114.4 0 0 114.4 0 256C0 396.8 114.4 512 256 512C396.8 512 512 396.8 512 256C512 114.4 396.8 0 256 0ZM138.4 170.4C137.6 170.4 137.6 170.4 136.8 170.4C132 169.6 129.6 165.6 130.4 160.8C136 130.4 164.8 110.4 194.4 116C199.2 116.8 201.6 120.8 200.8 125.6C200 130.4 196 132.8 191.2 132C170.4 128 149.6 142.4 146.4 164C145.6 167.2 142.4 170.4 138.4 170.4ZM352 413.6C342.4 418.4 331.2 410.4 316 399.2C299.2 386.4 278.4 370.4 256 370.4C233.6 370.4 212.8 386.4 196 399.2C184 408 175.2 415.2 166.4 415.2C164 415.2 162.4 414.4 160 413.6C151.2 409.6 150.4 397.6 150.4 388C150.4 329.6 197.6 282.4 256 282.4C314.4 282.4 361.6 329.6 361.6 388C361.6 398.4 360 409.6 352 413.6ZM375.2 169.6C374.4 169.6 374.4 169.6 373.6 169.6C369.6 169.6 366.4 166.4 365.6 162.4C361.6 141.6 341.6 127.2 320.8 130.4C316 131.2 312 128 311.2 124C310.4 119.2 313.6 115.2 317.6 114.4C348 108.8 376.8 129.6 381.6 159.2C382.4 164.8 379.2 168.8 375.2 169.6Z" fill="#F9D500"/>
<path d="M512 256C512 396.8 396.8 512 256 512C175.2 512 103.2 474.4 56 416C100 451.2 155.2 472 216 472C356.8 472 472 356.8 472 216C472 155.2 451.2 100 416 56C474.4 103.2 512 175.2 512 256Z" fill="#EABE03"/>
<path d="M200.8 124.8C200 129.6 196 132 191.2 131.2C170.4 127.2 149.6 141.6 146.4 163.2C145.6 167.2 142.4 170.4 138.4 170.4C137.6 170.4 137.6 170.4 136.8 170.4C132 169.6 129.6 165.6 130.4 160.8C136 130.4 164.8 110.4 194.4 116C199.2 116 201.6 120 200.8 124.8ZM381.6 160C382.4 164.8 379.2 168.8 375.2 169.6C374.4 169.6 374.4 169.6 373.6 169.6C369.6 169.6 366.4 166.4 365.6 162.4C361.6 141.6 341.6 127.2 320.8 130.4C316 131.2 312 128 311.2 124C310.4 119.2 313.6 115.2 317.6 114.4C347.2 109.6 376.8 130.4 381.6 160Z" fill="#322E63"/>
<path d="M256 283.2C197.6 283.2 150.4 330.4 150.4 388.8C150.4 398.4 151.2 409.6 160 414.4C162.4 415.2 164 416 166.4 416C174.4 416 184 408.8 196 400C212.8 387.2 233.6 371.2 256 371.2C278.4 371.2 299.2 387.2 316 400C331.2 411.2 341.6 419.2 352 414.4C360.8 410.4 361.6 398.4 361.6 388.8C361.6 330.4 314.4 283.2 256 283.2ZM344 398.4C340 396.8 332 390.4 325.6 386.4C308 372.8 283.2 354.4 256 354.4C228 354.4 204 372.8 186.4 386.4C180 391.2 172 396.8 168 398.4C167.2 396.8 167.2 393.6 167.2 388C167.2 339.2 207.2 299.2 256 299.2C304.8 299.2 344.8 339.2 344.8 388C344.8 394.4 344.8 396.8 344 398.4Z" fill="#322E63"/>
<path d="M344.8 388.8C344.8 394.4 344 397.6 344 399.2C340 397.6 332 391.2 325.6 387.2C308 373.6 283.2 355.2 256 355.2C228 355.2 204 373.6 186.4 387.2C180 392 172 397.6 168 399.2C167.2 397.6 167.2 394.4 167.2 388.8C167.2 340 207.2 300 256 300C304.8 299.2 344.8 339.2 344.8 388.8Z" fill="white"/>
<path d="M344.8 388.8C344.8 394.4 344 397.6 344 399.2C340 397.6 332 391.2 325.6 387.2C308 373.6 283.2 355.2 256 355.2C228 355.2 204 373.6 186.4 387.2C180 392 172 397.6 168 399.2C167.2 397.6 167.2 394.4 167.2 388.8C167.2 378.4 168.8 368 172.8 358.4C189.6 346.4 210.4 332.8 234.4 332.8C262.4 332.8 286.4 351.2 304 364.8C310.4 369.6 318.4 375.2 322.4 376.8C323.2 375.2 323.2 372 323.2 366.4C323.2 347.2 317.6 329.6 307.2 315.2C329.6 331.2 344.8 358.4 344.8 388.8Z" fill="#EFEFEF"/>
</g>
<defs>
<clipPath id="clip0_313_396">
<rect width="512" height="512" fill="white"/>
</clipPath>
</defs>
</svg>
